o plane
v -0.5 0 -0.5
v 0.5 0 -0.5
v 0.5 0 0.5
v -0.5 0 0.5
vn 0 1 0
vt 0 0
vt 1 0
vt 1 1
vt 0 1
f 1/1/1 4/4/1 2/2/1
f 2/2/1 4/4/1 3/3/1

o outline
v -0.5 0 -0.5
v 0.5 0 -0.5
v 0.5 0 0.5
v -0.5 0 0.5
v -0.4 0 -0.4
v 0.4 0 -0.4
v 0.4 0 0.4
v -0.4 0 0.4
vn 0 1 0
vt 0 0
vt 1 0
vt 1 1
vt 0 1
vt 0.1 0.1
vt 0.9 0.1
vt 0.9 0.9
vt 0.1 0.9
f 5/5/2 10/10/2 6/6/2
f 5/5/2 9/9/2 10/10/2
f 6/6/2 11/11/2 7/7/2
f 6/6/2 10/10/2 11/11/2
f 7/7/2 12/12/2 8/8/2
f 7/7/2 11/11/2 12/12/2
f 8/8/2 9/9/2 5/5/2
f 8/8/2 12/12/2 9/9/2
