<?xml version="1.0" encoding="UTF-8"?>
<svg width="1280pt" height="1280pt" version="1.0" viewBox="0 0 1280 1280" xmlns="http://www.w3.org/2000/svg">
<g transform="matrix(-.088352 .088352 .088352 .088352 886.72 -161.53)" fill="#ffffff">
<path d="m1900 5469c-544-48-1053-283-1436-664-130-130-210-227-310-376-78-117-91-146-77-160 6-6 277-14 648-20 352-5 640-11 641-12s139-251 308-555l307-552-327-546-326-546-142 6c-77 3-362 9-632 12-432 6-492 5-497-9-8-20 106-210 207-344 99-132 308-343 436-440 487-368 1067-531 1662-468 789 83 1483 562 1834 1265l56 111 67-8c36-4 1697-8 3691-8h3625l110 22c492 100 828 361 891 691 20 103 19 437-1 532-69 326-372 589-805 700-227 58 30 54-3730 58-3270 3-3676 0-3845-24l-40-6-37 76c-303 615-924 1088-1606 1225-206 41-476 58-672 40z"/>
</g>
</svg>
