v -0.006461 -0.100000 1.000000
v -0.006461 -0.100000 0.000000
v 0.006461 -0.100000 1.000000
v 0.006461 -0.100000 0.000000
v -0.001617 -0.006911 1.000000
v -0.006461 -0.011754 1.000000
v -0.005042 -0.008329 1.000000
v -0.006461 -0.011754 0.000000
v -0.001617 -0.006911 0.000000
v -0.005042 -0.008329 0.000000
v 0.006461 -0.011754 1.000000
v 0.001617 -0.006911 1.000000
v 0.005042 -0.008329 1.000000
v 0.001617 -0.006911 0.000000
v 0.006461 -0.011754 0.000000
v 0.005042 -0.008329 0.000000
vt 0.534102 0.999957
vt 0.467818 0.999709
vt 0.467818 0.000043
vt 0.534102 0.000291
vt 1.001919 0.999666
vt 0.666697 0.999666
vt 0.666697 0.000000
vt 1.001919 0.000000
vt 0.401520 0.999855
vt 0.401520 0.000188
vt 0.335223 1.000000
vt 0.335223 0.000334
vt 0.600399 0.000145
vt 0.600399 0.999812
vt 0.000000 0.000334
vt 0.000000 1.000000
vn 0.1951 0.9808 0.0000
vn -0.1951 0.9808 0.0000
vn 1.0000 0.0000 0.0000
vn 0.9808 0.1951 0.0000
vn -0.7071 0.7071 0.0000
vn -0.9808 0.1951 0.0000
vn 0.7071 0.7071 0.0000
vn -1.0000 0.0000 0.0000
f 14/1/1 9/2/2 5/3/2 12/4/1
f 4/5/3 15/6/4 11/7/4 3/8/3
f 5/3/2 9/2/2 10/9/5 7/10/5
f 7/10/5 10/9/5 8/11/6 6/12/6
f 14/1/1 12/4/1 13/13/7 16/14/7
f 16/14/7 13/13/7 11/7/4 15/6/4
f 1/15/8 6/12/6 8/11/6 2/16/8
