v -0.480002 -0.000000 0.480002
v -0.500000 -0.019998 -0.500000
v -0.500000 -0.019998 0.500000
v 0.480002 -0.000000 0.480002
v 0.500000 -0.019998 0.500000
v 0.480002 0.000000 -0.480002
v -0.480002 0.000000 -0.480002
v 0.500000 -0.019998 -0.500000
v 0.500000 -0.100000 0.500000
v -0.500000 -0.100000 0.500000
v 0.500000 -0.100000 -0.500000
v -0.500000 -0.100000 -0.500000
vt 0.046875 0.044890
vt 0.000000 1.000000
vt -0.000000 0.000000
vt 0.953125 0.044889
vt 1.000000 -0.000000
vt 0.953125 0.953125
vt 0.046875 0.945313
vt 1.000000 1.000000
vt 1.000000 -0.078125
vt -0.000000 -0.078125
vt 1.078125 1.000000
vt 1.078125 -0.000000
vt -0.078125 0.000000
vt -0.078125 1.000000
vn -0.7071 0.7071 0.0000
vn 0.0000 0.7071 0.7071
vn 0.7071 0.7071 0.0000
vn 0.0000 0.7071 -0.7071
vn 0.0000 -0.0000 1.0000
vn 0.0000 1.0000 0.0000
vn 1.0000 0.0000 0.0000
vn -1.0000 0.0000 0.0000
f 1/1/1 2/2/1 3/3/1
f 3/3/2 4/4/2 1/1/2
f 5/5/3 6/6/3 4/4/3
f 7/7/4 8/8/4 2/2/4
f 9/9/5 3/3/5 10/10/5
f 4/4/6 7/7/6 1/1/6
f 11/11/7 5/5/7 9/12/7
f 10/13/8 2/2/8 12/14/8
f 1/1/1 7/7/1 2/2/1
f 3/3/2 5/5/2 4/4/2
f 5/5/3 8/8/3 6/6/3
f 7/7/4 6/6/4 8/8/4
f 9/9/5 5/5/5 3/3/5
f 4/4/6 6/6/6 7/7/6
f 11/11/7 8/8/7 5/5/7
f 10/13/8 3/3/8 2/2/8
